<svg xmlns="http://www.w3.org/2000/svg" viewBox="0 0 682.37 303.88"><defs><style>.cls-1{fill:#008d38;}</style></defs><g id="Layer_2" data-name="Layer 2"><g id="Layer_4" data-name="Layer 4"><path class="cls-1" d="M37.19,282.79A24.23,24.23,0,0,1,35.8,291a16.92,16.92,0,0,1-4.21,6.55,19.52,19.52,0,0,1-7.44,4.51,31.07,31.07,0,0,1-9.89,1.44c-2.78,0-5.38-.12-7.82-.34a51.11,51.11,0,0,1-6.44-1v-13.6H1.43c1.26.54,2.58,1,4,1.5a16.78,16.78,0,0,0,5.31.7,13.31,13.31,0,0,0,6.41-1.26A7,7,0,0,0,20.28,286a14,14,0,0,0,1.07-5.12c.07-1.93.1-4.09.1-6.46v-26.9H7.11V235.4H37.19Z"/><path class="cls-1" d="M74.67,303.88q-12.63,0-19.42-6.54t-6.79-19.1V235.4H64.19v41.85q0,7,2.47,10.41t8,3.42c3.62,0,6.27-1.09,8-3.29s2.55-5.7,2.55-10.54V235.4h15.73v42.8q0,12.39-6.63,19T74.67,303.88Z"/><path class="cls-1" d="M166.67,302.48H151.53l-24.15-46.76v46.76H113V235.4H132.3l20,38.43V235.4h14.39Z"/><path class="cls-1" d="M234.27,302.48h-19l-17.08-27.25-3.07,4.59v22.66H179.37V235.4h15.74v29.78l20-29.78h18.21L211,266.53Z"/><path class="cls-1" d="M322.53,302.48H303.34l-17.45-24.6h-5.64v24.6H264.6V235.4h25.2a52.21,52.21,0,0,1,9.08.7A18.6,18.6,0,0,1,306,239a17,17,0,0,1,5.34,5.83,18.24,18.24,0,0,1,2,9q0,7.69-3.24,12.5a23.19,23.19,0,0,1-8.67,7.63ZM297.2,255.94a9.69,9.69,0,0,0-.9-4.34,6.15,6.15,0,0,0-3-2.82,10.28,10.28,0,0,0-3.28-.85q-1.81-.18-4.5-.18h-5.26v18.06h4.5a30.44,30.44,0,0,0,5.57-.43,8.3,8.3,0,0,0,6.15-4.84A12.07,12.07,0,0,0,297.2,255.94Z"/><path class="cls-1" d="M327.15,302.48V235.4h42.37v12.8H342.8V260h24.61v12.8H342.8v16.94h26.72v12.79Z"/><path class="cls-1" d="M444.14,302.48H428.49V258l-11.4,28.69H406.37L395,258v44.46H380.16V235.4h18.13l13.88,33.11L426,235.4h18.13Z"/><path class="cls-1" d="M514.14,269q0,16.28-8.12,25.59t-22.25,9.33q-14.17,0-22.25-9.44T453.44,269q0-16.17,8.08-25.56T483.77,234q14.13,0,22.25,9.34T514.14,269Zm-16.24,0a39,39,0,0,0-1.15-10.2,21.88,21.88,0,0,0-3.1-6.92,12,12,0,0,0-4.56-3.94,12.6,12.6,0,0,0-10.54-.09,12.79,12.79,0,0,0-4.54,3.94,20.84,20.84,0,0,0-3.13,6.94,45.94,45.94,0,0,0-.07,20.56,21.69,21.69,0,0,0,3.11,6.83,12,12,0,0,0,4.59,4,12.38,12.38,0,0,0,5.3,1.2A11.92,11.92,0,0,0,493.7,286a22.9,22.9,0,0,0,3.11-6.83A38.85,38.85,0,0,0,497.9,268.92Z"/><path class="cls-1" d="M575.77,235.4l-21.54,67.08H537.82L516.29,235.4h16.32l13.63,45.46,13.63-45.46Z"/><path class="cls-1" d="M574.84,302.48,596,235.4h17.17l21.16,67.08h-16.2l-3.91-13.69H594.53l-3.91,13.69Zm35.93-25.86-6.4-22.12L598,276.62Z"/><path class="cls-1" d="M682.37,302.48H640.55V235.4h15.73v54.29h26.09Z"/><path class="cls-1" d="M540.49,81.61s.11-6.48.11-7-.23-1.54-1.31-1-1.37,2.69-1.37,2.69c1.43-1,1.43.45,1.43.45l-.06,5.83Z"/><path class="cls-1" d="M436.09,113.35c-9.65,2-14.74,18-16.81,27.86,9.67-4,17.75-12.69,19-23.16C438.67,115.17,437.19,113.12,436.09,113.35Z"/><path class="cls-1" d="M530.12,120c-.15,4.61,1.56,8.42,3.82,8.52s4.22-3.57,4.38-8.18-1.56-8.42-3.82-8.51S530.27,115.37,530.12,120Z"/><path class="cls-1" d="M523.1,112.69l-1.48-2.21,1-3.45-.25-2.21-.74-3-1.47-3,3-2.22,1-18.22-2.47-3.2,8.13-6.64L549,43.27l24.62,24.62,2.21,1.23,2,2.22-2.21,3.44.24,18.47,2.22,2,.74,3.45-2.47,3.45.5,3.69-.5,2.46,1,37.85c10-17.25,38.46-74.07-3.12-103C509.41,3.92,402.85,0,344.39,0s-164,3.92-228.75,43.11c-49.38,34.36-24.07,90.49-3.52,117.63.24.31,6.63,7.67,16.47,17.23a12.32,12.32,0,0,0,5.34-.55c17.33-5.72,21.19-32.85,24.77-48.29,4.88-21.07,9.08-43.83,6.12-65.57a3.52,3.52,0,0,0-4.35-2.85c-18.06,5.65-25.2,32-22.66,48.76,2.23,14.73,8,17.18,8.4,19.79.23,1.42-1.24,2.77-2.72,3.05-15.3,2.94-31-11.25-33.33-24.78-5-29.06,18.66-61.85,49.08-67.19C189.9,35,210.94,62,213.4,89.92c1.82,20.58,2.8,41.19,2.79,61.92,14.14-41.38,31.89-81.34,46.88-122.39,1.09-3,2.09-4.76,3.24-4.72,11.59.37,27.06,13.13,26.95,25.77-.35,38.74-20.78,78.59-19.42,117.94.44,12.73,4.43,15.82,4.64,18.46.18,2.4-1.18,4.19-3.45,4.09-13.25-.57-28.31-15.21-29.48-27.08C243,138.19,252,109.35,258.33,82.07A659.35,659.35,0,0,0,217.5,186.92c-1.06,3.85-3.37,5.83-4.59,6-10.16,1.31-24.22-3.65-26.6-14.13-5.7-25.08,0-55.57-2.83-82.21a55.74,55.74,0,0,0-2.72-12.35c-2.13,26-4.5,51.93-9,77.63-2.12,12.06-4.68,31.31-14.76,40.46,15.61,11.51,33,20.91,48.05,20.91,38.55,0,110.85-20.33,145.1-20.33s94.65,20.33,133.21,20.33c11.38,0,24-6.28,36-15.14Zm-61.28-12.53c.34-3.39,4.72-7,5.64-16.31.33-3.36-.92-5-.59-8.84.48-5.52,3.36-9.49,7.72-9.13,4.75.39,6.91,4.47,6,10.58-1.29,8.69-7.85,23.58-17.22,26.35C462.68,103,461.67,101.67,461.82,100.16ZM321.49,46.05c6-1,11.88,4.94,12,14,.13,9.9-4.26,23.4-15,25.08-5.61.88-12.12-5-12.37-13.66C305.84,61.26,310.42,47.82,321.49,46.05ZM301.77,182.73c-8,.07-19.68-2.66-19.88-10.95-.6-24.65,14.42-47.24,14.46-71.85,0-2.33,1.49-4.2,4.91-4.4,10.8-.63,17.93,10.46,17.76,17-.55,22-15.11,42-14.33,64.37C304.81,180.47,304.49,182.7,301.77,182.73ZM386.07,158c-1.13,11-15.22,28.52-23.81,26.49-8.9-2.11-9.1-24.87-15.89-30.8-.67-.59-5.75,17.87-5.88,24.71-.07,3.66-.69,5.1-3.07,5-8-.3-19.43-3.79-19.5-12.19-.41-46,31.86-86.38,32.52-132.44,0-2.38,1.59-4.27,5.14-4.41C363.43,34,374.43,45.37,374,52,372.36,77.38,356.62,100.1,353.1,125c-.09.64.42,1.07.7,1,11-2.2,17.84-18.19,20.11-29,.58-2.3,1.87-3.31,3.68-3.31,6.72,0,20.48,1.43,19.81,8.91-1.64,18.23-22.76,34.61-39.76,39,0,0,6.76,13.77,19.52,14.19,3.84.13,4.74-1.36,6.49-1.31S386.28,155.89,386.07,158Zm66.07-39.47c-1.81,17.61-16.21,33.36-33.52,37.24.76,5.4,3.15,8.59,7.4,9,9.94,1,13.81-10,15.87-9.7,1.1.17,2.18,2.63,2,4.67-1.52,15.54-16.72,27.65-31.75,27-14.2-.61-21-17.36-20.78-29.14.49-22.89,20-63.69,46.71-61.68C448.37,96.69,453.12,109,452.14,118.48Zm47.25,25.44c-1.75-.32-1.82-2-1.82-5.8,0-5.73-1.06-12.6-4.62-13.24-2.17-.39-4.17,2.13-4.28,5.27-.51,14.86,14.34,25.62,13.33,41-.92,13.9-14.27,27.4-27.67,24.39-10.14-2.28-19.4-13.14-19.71-24-.18-6.65,9-17.16,13.67-16.25,1.91.38,2.33,2.05,2.43,4.17.24,9,2.94,15.67,6,16.3,1.65.34,3.11-1.47,3.29-4.22,1-15.53-14.37-26.72-13.47-41.93.88-15,16-27.93,30.73-25.37,11,1.92,20.06,12.41,18.58,24C515,135.1,503.35,144.65,499.39,143.92Z"/><path class="cls-1" d="M536.43,85.2s.12-6.48.12-7-.23-1.54-1.31-1-1.37,2.69-1.37,2.69c1.42-1,1.42.45,1.42.45l0,5.83Z"/><path class="cls-1" d="M569.43,80.58a2.64,2.64,0,0,0-1.64-2.39,1.32,1.32,0,0,0-1.93,1.07l0,8.08,3.75,1.83Z"/><path class="cls-1" d="M556.93,72.93A1.31,1.31,0,0,0,555,74L554.87,82,558.58,84l-.05-8.59A2.69,2.69,0,0,0,556.93,72.93Z"/><path class="cls-1" d="M564,78a2.69,2.69,0,0,0-1.6-2.44,1.31,1.31,0,0,0-1.94,1l-.12,8.07,3.71,1.93Z"/><path class="cls-1" d="M531.35,80.58c-1.08.58-1.37,2.69-1.37,2.69,1.43-1,1.43.45,1.43.45l-.06,5.84,1.2-1s.12-6.47.12-7S532.44,80,531.35,80.58Z"/><path class="cls-1" d="M556.56,118.13c0,5.3,3.08,10.16,6.74,10.55s6-3.55,5.66-8.54c-.3-4.74-3.06-9-6.27-9.63S556.56,113.1,556.56,118.13Z"/></g></g></svg>