<svg xmlns="http://www.w3.org/2000/svg" viewBox="0 0 683.63 322.39"><defs><style>.cls-1{font-size:92.26px;font-family:Tahoma-Bold, Tahoma;font-weight:700;}.cls-1,.cls-2{fill:#008d38;}</style></defs><g id="Layer_2" data-name="Layer 2"><g id="Layer_4" data-name="Layer 4"><text class="cls-1" transform="translate(0 302.48) scale(0.93 1)">JUNK REMOVAL</text><path class="cls-2" d="M540.74,81.61s.11-6.48.11-7-.23-1.54-1.31-1-1.37,2.69-1.37,2.69c1.43-1,1.43.45,1.43.45l-.06,5.83Z"/><path class="cls-2" d="M436.34,113.35c-9.65,2-14.74,18-16.81,27.86,9.67-4,17.75-12.69,19-23.16C438.92,115.17,437.44,113.12,436.34,113.35Z"/><path class="cls-2" d="M530.37,120c-.15,4.61,1.56,8.42,3.82,8.52s4.22-3.57,4.38-8.18-1.56-8.42-3.82-8.51S530.53,115.37,530.37,120Z"/><path class="cls-2" d="M523.35,112.69l-1.47-2.21,1-3.45-.25-2.21-.73-3-1.48-3,3-2.22,1-18.22-2.46-3.2L530,68.63l19.2-25.36,24.62,24.62L576,69.12l2,2.22-2.21,3.44L576,93.25l2.22,2,.74,3.45-2.46,3.45.49,3.69-.49,2.46,1,37.85c10-17.25,38.45-74.07-3.12-103C509.66,3.92,403.1,0,344.64,0s-164,3.92-228.75,43.11c-49.38,34.36-24.07,90.49-3.52,117.63.24.31,6.63,7.67,16.48,17.23a12.35,12.35,0,0,0,5.34-.55c17.32-5.72,21.18-32.85,24.76-48.29,4.88-21.07,9.08-43.83,6.12-65.57a3.52,3.52,0,0,0-4.35-2.85c-18.06,5.65-25.2,32-22.66,48.76,2.23,14.73,8,17.18,8.4,19.79.23,1.42-1.24,2.77-2.72,3.05-15.3,2.94-31-11.25-33.33-24.78-5-29.06,18.66-61.85,49.08-67.19C190.15,35,211.19,62,213.65,89.92c1.82,20.58,2.8,41.19,2.8,61.92,14.13-41.38,31.88-81.34,46.87-122.39,1.09-3,2.09-4.76,3.24-4.72,11.59.37,27.06,13.13,26.95,25.77-.35,38.74-20.78,78.59-19.41,117.94.44,12.73,4.42,15.82,4.63,18.46.19,2.4-1.18,4.19-3.45,4.09-13.25-.57-28.31-15.21-29.47-27.08-2.52-25.72,6.45-54.56,12.78-81.84a658.44,658.44,0,0,0-40.84,104.85c-1.05,3.85-3.36,5.83-4.59,6-10.16,1.31-24.22-3.65-26.6-14.13-5.7-25.08.05-55.57-2.82-82.21A55.67,55.67,0,0,0,181,84.22c-2.13,26-4.5,51.93-9,77.63-2.12,12.06-4.68,31.31-14.76,40.46,15.61,11.51,33,20.91,48.05,20.91,38.55,0,110.85-20.33,145.1-20.33S445,223.22,483.59,223.22c11.38,0,24-6.28,36-15.14Zm-61.28-12.53c.35-3.39,4.72-7,5.64-16.31.33-3.36-.92-5-.58-8.84.47-5.52,3.36-9.49,7.71-9.13,4.75.39,6.91,4.47,6,10.58-1.29,8.69-7.84,23.58-17.22,26.35C462.93,103,461.92,101.67,462.07,100.16ZM321.74,46.05c6-1,11.88,4.94,12,14,.13,9.9-4.26,23.4-15,25.08-5.6.88-12.11-5-12.37-13.66C306.09,61.26,310.67,47.82,321.74,46.05ZM302,182.73c-8,.07-19.68-2.66-19.88-10.95-.6-24.65,14.42-47.24,14.46-71.85,0-2.33,1.49-4.2,4.91-4.4,10.8-.63,17.93,10.46,17.77,17-.56,22-15.11,42-14.34,64.37C305.06,180.47,304.75,182.7,302,182.73ZM386.32,158c-1.13,11-15.22,28.52-23.81,26.49-8.9-2.11-9.1-24.87-15.88-30.8-.68-.59-5.76,17.87-5.89,24.71-.07,3.66-.69,5.1-3.07,5-8-.3-19.43-3.79-19.5-12.19-.41-46,31.86-86.38,32.52-132.44,0-2.38,1.59-4.27,5.14-4.41,7.85-.32,18.85,11,18.43,17.63-1.64,25.43-17.38,48.15-20.91,73.09-.09.64.43,1.07.7,1,11-2.2,17.85-18.19,20.11-29,.58-2.3,1.87-3.31,3.68-3.31,6.72,0,20.48,1.43,19.81,8.91-1.64,18.23-22.75,34.61-39.76,39,0,0,6.76,13.77,19.52,14.19,3.84.13,4.74-1.36,6.49-1.31S386.53,155.89,386.32,158Zm66.07-39.47c-1.81,17.61-16.21,33.36-33.52,37.24.76,5.4,3.16,8.59,7.4,9,9.94,1,13.81-10,15.87-9.7,1.11.17,2.18,2.63,2,4.67-1.52,15.54-16.71,27.65-31.75,27-14.2-.61-21-17.36-20.78-29.14.49-22.89,20-63.69,46.71-61.68C448.62,96.69,453.37,109,452.39,118.48Zm47.25,25.44c-1.75-.32-1.82-2-1.81-5.8,0-5.73-1.07-12.6-4.63-13.24-2.16-.39-4.17,2.13-4.28,5.27-.51,14.86,14.34,25.62,13.33,41-.92,13.9-14.26,27.4-27.67,24.39-10.13-2.28-19.4-13.14-19.71-24-.18-6.65,9-17.16,13.68-16.25,1.9.38,2.32,2.05,2.43,4.17.23,9,2.94,15.67,6,16.3,1.65.34,3.12-1.47,3.29-4.22,1-15.53-14.37-26.72-13.47-41.93.88-15,16-27.93,30.73-25.37,11,1.92,20.06,12.41,18.58,24C515.2,135.1,503.61,144.65,499.64,143.92Z"/><path class="cls-2" d="M536.69,85.2s.11-6.48.11-7-.23-1.54-1.31-1-1.37,2.69-1.37,2.69c1.42-1,1.42.45,1.42.45l0,5.83Z"/><path class="cls-2" d="M569.68,80.58A2.62,2.62,0,0,0,568,78.19a1.31,1.31,0,0,0-1.92,1.07l0,8.08,3.74,1.83Z"/><path class="cls-2" d="M557.18,72.93a1.31,1.31,0,0,0-1.94,1L555.13,82,558.84,84l-.06-8.59A2.66,2.66,0,0,0,557.18,72.93Z"/><path class="cls-2" d="M564.26,78a2.66,2.66,0,0,0-1.6-2.44,1.31,1.31,0,0,0-1.94,1l-.11,8.07,3.71,1.93Z"/><path class="cls-2" d="M531.61,80.58c-1.09.58-1.37,2.69-1.37,2.69,1.42-1,1.42.45,1.42.45l0,5.84,1.19-1s.12-6.47.12-7S532.69,80,531.61,80.58Z"/><path class="cls-2" d="M556.81,118.13c0,5.3,3.08,10.16,6.74,10.55s6-3.55,5.66-8.54c-.3-4.74-3.05-9-6.27-9.63S556.81,113.1,556.81,118.13Z"/></g></g></svg>