<svg xmlns="http://www.w3.org/2000/svg" viewBox="0 0 683.63 319.12"><defs><style>.cls-1{font-size:92.26px;font-family:Tahoma-Bold, Tahoma;font-weight:700;}.cls-1,.cls-2{fill:#008d38;}</style></defs><g id="Layer_2" data-name="Layer 2"><g id="Layer_4" data-name="Layer 4"><text class="cls-1" transform="translate(0 299.2) scale(0.93 1)">JUNK REMOVAL</text><path class="cls-2" d="M447.51,219.21c-22.53-5.7-65.78-30.8-72.94-32.39-10.31-2.29-12.84,5.65-18.43,8-6.57,2.78-25.57,3-32.07-3.05s11.84-7.45,9.67-11.56c-3.49-6.61-44.4,11.21-58.17,18.1-7,3.52-18.77,9.83-49,21.91Z"/><path class="cls-2" d="M543.27,67.47a2.55,2.55,0,0,0-1.47-2.31,1.2,1.2,0,0,0-1.78,1l-.11,7.68,3.41,1.82Z"/><path class="cls-2" d="M535.94,103.86c0,4.76,3.1,9.11,6.78,9.47s6-3.19,5.71-7.66c-.31-4.26-3.08-8-6.32-8.64S535.94,99.35,535.94,103.86Z"/><path class="cls-2" d="M548.25,69.93a2.51,2.51,0,0,0-1.51-2.28,1.21,1.21,0,0,0-1.76,1l0,7.68,3.45,1.74Z"/><path class="cls-2" d="M512.61,105.23c-.25,4.24,1.3,7.8,3.48,7.94s4.16-3.18,4.42-7.42S519.2,98,517,97.81,512.87,101,512.61,105.23Z"/><path class="cls-2" d="M517.92,74.31s.11-6.15.11-6.64-.21-1.46-1.21-.91-1.26,2.56-1.26,2.56c1.31-.92,1.31.42,1.31.42l0,5.55Z"/><path class="cls-2" d="M536.76,62.66a1.2,1.2,0,0,0-1.78,1l-.11,7.68,3.41,1.83,0-8.17A2.55,2.55,0,0,0,536.76,62.66Z"/><path class="cls-2" d="M513.25,69.93c-1,.55-1.26,2.56-1.26,2.56,1.32-.92,1.32.42,1.32.42l-.06,5.55,1.11-1s.1-6.15.1-6.64S514.25,69.38,513.25,69.93Z"/><path class="cls-2" d="M521.65,70.9s.1-6.15.1-6.64-.21-1.46-1.2-.91-1.26,2.56-1.26,2.56c1.31-.92,1.31.42,1.31.42l-.05,5.55Z"/><path class="cls-2" d="M404.59,86.28c-5.33-.29-13.07,10.37-14.34,23,10.18-3.7,18.17-12.9,17.53-19.34C407.53,87.48,406.26,86.37,404.59,86.28Z"/><path class="cls-2" d="M557.36,41.53C495,3.78,392.34,0,336,0S178,3.78,115.64,41.53c-47.58,33.11-23.2,87.19-3.39,113.33a304.44,304.44,0,0,0,36.25,34.7,9,9,0,0,0,1.77-1c23.28-17.58,11.15-94.24,3-121.42-.71-2.14-2.8-3.13-4.06-2.33-13,8.16-13,37.59-8.14,53.35,4.55,14.67,9.69,16.22,10.52,18.81a3.19,3.19,0,0,1-1.59,3.6c-12.54,5.62-27.39-6.08-32.23-19-10-26.85-1.66-65.41,26.09-77.39,27.94-12.06,46.91,20.28,53.3,43.63a537,537,0,0,1,13.46,61.07c4.29-42.46,11-84.62,17-126.82.44-3.09,1-4.82,2.11-5,11.46-1.4,27.09,11.18,29.52,22.58,7.11,33.41-5.33,77.23,2.14,115.3,2.37,12.11,5.78,13.88,6.24,16.29.42,2.2-.35,3.85-2.56,4.6-6,2.05-26-6.08-28.66-19.87-5-25.67-3.32-54.72-3.11-81.69-8.82,35.31-13,72.31-16.47,108.62-.32,3.91-1.84,6.12-2.83,6.59-6.09,2.88-20.33.48-22.69-9.36-6.27-26.27-8.67-55.27-16.61-81.9a79.72,79.72,0,0,0-4.61-12.13c3.56,26.52,17.44,94,3.73,120.61,9.55,5.08,19.15,8.4,27.94,8.4,37.14,0,106.81-47.92,139.8-47.92s91.19,47.92,128.33,47.92c10.25,0,21.51-5.3,32.44-13l4-103-1.31-2,.87-3.07-.22-2L505,89.42l-1.32-2.63,2.63-2,.88-16.23L505,65.73l7.24-5.93,17.11-22.59,21.94,21.93,2,1.1,1.76,2-2,3.07.22,16.45,2,1.76.65,3.07-2.19,3.07.44,3.29-.44,2.2,1.37,53.53c1.46-1.9,2.25-3,2.25-3S604.93,74.64,557.36,41.53ZM434.52,53.18c-.38-3.79-2.47-5.75-2.94-10.2-.67-6.35,2.31-10.74,8.13-9.76,6.35,1.08,9.76,5.9,10.42,13,1.38,15.08-13.08,28.3-16.49,27.86a3.21,3.21,0,0,1-2.81-3C430.47,67.32,435.57,63.69,434.52,53.18ZM289.59,156c.47,3.19.46,5.33-1.95,6-7.06,1.93-17.53,2.07-18.78-5.64-3.64-22.45,6.13-46.77,2-70.06-.49-2.25.63-4.16,3.71-4.8,9.74-2,18.18,7.32,19,13.23C296.22,114,286.61,135.91,289.59,156Zm-1-86.27c-5.77,1-11.95-3.22-13.74-11.38-2.58-11.8,1.49-24,9.84-25.12,6.14-.87,11.87,3.82,13.56,12.15C300.61,56.83,296.2,68.41,288.62,69.69Zm63.77,54.78c3.5-.32,4.14-1.65,5.73-1.77s2.35.68,2.58,2.57c.85,6.94-7.92,23.94-18.74,25.47-8.51,1.2-14.74-24.35-17.73-23.89-1.89.29-3.07,16.6-2.48,22.63.31,3.23-.11,4.62-2.25,5-7.2,1.4-17.89.76-18.78-6.7C296.07,109,314.92,65.92,310.58,25c-.45-2.26.79-4,4.09-4.21,7.29-.53,19.33,9.47,20,15.31,2.2,20.22-8.56,46.4-8.12,65.06a.75.75,0,0,0,.79.78c6.29-.77,13.83-15.25,14.2-26.72.19-2,1.22-2.94,2.88-3,6.16-.36,19.22.62,19.39,6.57.42,14.51-17.46,30.22-30.85,36.16C332.93,114.87,340.79,125.53,352.39,124.47Zm47.75,3.47c10.9.11,14.35-9,16.79-8.81,1.29.07,3,2.05,2.86,3.59-.92,12.76-18.11,24.31-32.07,24.4-10.4.07-20.28-7.53-22.29-22.6-3.14-23.67,14-53.54,38.67-52.22C417,73,423.4,82.56,423.66,90.15c.54,16.56-18.24,27.2-32.36,31C392.69,125.47,395.48,127.9,400.14,127.94Zm71.44-17.34c-1.79-.35-2.14-1.57-2.74-4.3-.92-4.13-3.14-9.17-6.94-9.86-2.31-.43-3.71,1.06-3.6,3.56.46,9.83,20.34,17.29,21.08,31.18.82,15.21-6.78,22.18-28.83,17.84a58.31,58.31,0,0,1-17.49-6.32c-4.65-2.68-8.16-6.45-7.43-12.65a12.24,12.24,0,0,1,3.08-6.71c3-3.27,7.48-5.79,10.72-5.41a3.51,3.51,0,0,1,3.36,3.08c1.44,6.65,5.28,11.63,8.8,12.1a2.8,2.8,0,0,0,3.24-3.13c-1.63-12.64-19.6-17.63-21.21-31-1.77-14.71,17.25-19.67,29.05-17.13,13.39,2.89,21.82,12.35,22,19C484.81,105.71,475.66,111.4,471.58,110.6Z"/></g></g></svg>