<svg xmlns="http://www.w3.org/2000/svg" viewBox="0 0 616.79 308.27"><defs><style>.cls-1{fill:#008d38;}</style></defs><g id="Layer_2" data-name="Layer 2"><g id="Layer_4" data-name="Layer 4"><path class="cls-1" d="M27.21,308.27H7.67c-4.49,0-7.67-4.06-7.67-9.63V273.36l11.59.3v19.66l11.59.13V246.92l-10.66-.48V234.61q14.2.76,28.41,1.45c0,4.64,0,7,0,11.61l-6.08-.25q0,25.72,0,51.46C34.87,304.31,31.7,308.27,27.21,308.27Z"/><path class="cls-1" d="M63.85,293.51l14.87.13q0-22.26,0-44.54l-4.39-.16c0-4.54,0-6.81,0-11.35,8.94.38,13.41.56,22.34.9,0,4.49,0,6.73,0,11.21-2.43-.07-3.65-.11-6.08-.2q0,24.86,0,49.71c0,5.24-3.17,9.06-7.66,9.06H59.65c-4.49,0-7.67-3.91-7.67-9.28q0-25.44,0-50.88l-6-.24V236.31c8.94.42,13.4.63,22.34,1v11.4l-4.48-.17Q63.84,271,63.85,293.51Z"/><path class="cls-1" d="M102,297.09l6.64,0,0-47-6.63-.21c0-4.47,0-6.7,0-11.18,7.18.27,10.77.4,18,.65q9.63,20.53,19.37,41h.19q0-14.72,0-29.41l-5.43-.14v-11c9.31.3,14,.44,23.28.69,0,4.36,0,6.54,0,10.89l-7-.16,0,57H139.49q-10-21.09-19.84-42.27h-.09q0,15.6,0,31.19l5.71,0v11H102Z"/><path class="cls-1" d="M180.05,267.59l3.18.05q5.82-13.12,11.68-26.24c6.36.13,9.54.19,15.9.3v10.7l-8.6-.14c-2.77,6.21-4.15,9.31-6.92,15.54,6.36.08,8.7,4.57,8.71,11.34v18.41l7.48,0c0,4.27,0,6.41,0,10.69H188.67V297.5l4.67,0V280l-13.28-.12c0,7.05,0,10.57,0,17.61l4.67,0c0,4.31,0,6.47,0,10.78H161.93V297.4l6.26,0q0-22.9,0-45.81l-6.26-.13c0-4.35,0-6.53,0-10.87,9.13.24,13.69.35,22.82.56V252l-4.67-.09Z"/><path class="cls-1" d="M245.33,297.66h6.07q0-22.4,0-44.79l-6.07-.06c0-4.25,0-6.37,0-10.62q17.2.18,34.42.29c6.08,0,9.16,3.84,9.16,10.4s0,9.72,0,16.2c0,7.59-4.21,11.08-9.07,11.06,1.87,7,2.8,10.54,4.67,17.56h8.7v10.56H275c-2.7-10.84-4-16.26-6.74-27.12h-4.77c0,6.62,0,9.92,0,16.54h4.67v10.58H245.33Zm29.26-43.29-11.41-.06V269c4.56,0,6.85,0,11.41.05,1.59,0,2.43-1.22,2.43-3.07v-8.52C277,255.62,276.27,254.38,274.59,254.37Z"/><path class="cls-1" d="M332.47,262.83V255c-5.83,0-8.75,0-14.59,0v13.85l15.43,0v11.9l-15.43,0v14.56h14.59v-7.49l9.63,0v20.43H299.46V297.71H306V252.92h-6.55V242.56q21.33,0,42.65-.2v20.43Z"/><path class="cls-1" d="M347.8,297.69h7.67q0-22.37,0-44.72l-7.67,0V242.43c10.18-.08,15.26-.13,25.44-.25l10.65,37h.18q5.6-18.63,11.15-37.26c10-.16,15-.25,25.06-.45,0,4.29,0,6.44,0,10.74l-7.39.12q0,22.64,0,45.26l7.38,0v10.74h-24.4V297.6h5.42q0-17.79,0-35.58h-.75q-6.49,19.62-13,39.22h-8q-6.06-20.34-12.14-40.67h-.66q0,18.54,0,37.07h5.71c0,4.25,0,6.37,0,10.62H347.8Z"/><path class="cls-1" d="M458.4,308.27H436.34c-4.49,0-7.67-3.66-7.66-8.68q0-24.72,0-49.45c0-5,3.74-9,8.23-9.08,8.38-.19,12.57-.3,20.95-.52,4.48-.13,8.22,3.69,8.22,8.78l0,50.15C466.07,304.56,462.89,308.27,458.4,308.27ZM440.57,254.1q0,20.31,0,40.63l13.65-.07q0-20.42,0-40.84C448.76,253.94,446,254,440.57,254.1Z"/><path class="cls-1" d="M495,290.44h.19q4.32-20.12,8.62-40.23V239.1c7.07-.25,10.6-.39,17.67-.66v11.22l-5.24.17q-6.84,29.23-13.77,58.44H487q-5.56-28.65-11.19-57.28l-5.61.14c0-4.38,0-6.57,0-10.94,7.44-.22,11.16-.34,18.6-.58v11h-.1Q491.86,270.55,495,290.44Z"/><path class="cls-1" d="M525.16,297l4.31,0q0-24.24,0-48.48c0-5.14,3.93-10.55,8.32-10.74,7.37-.31,11.05-.47,18.41-.8,4.49-.2,8.14,4.89,8.13,10.25q0,24.77,0,49.53l4.21,0c0,4.61,0,6.92,0,11.54H549v-11.4l3.55,0V283.42l-11,.16v13.34l3.17,0v11.37H525.16Zm16.38-46.73v19.62l11-.26V249.91Z"/><path class="cls-1" d="M593,294.71l14.21-.14V280.75l9.63-.2v27.72H574.71V296.68l6.83-.06q0-24.71,0-49.41l-6.82.28V236.12c9.83-.48,14.75-.73,24.58-1.25v11.57l-6.36.28Z"/><path class="cls-1" d="M531.35,69.3a1.84,1.84,0,0,0-1.25-1.7,1,1,0,0,0-1.52.72l-.09,5.62,2.9,1.34Z"/><path class="cls-1" d="M367.6,93.71c-.25-2.44-1.52-3.53-3.19-3.62-5.34-.28-13.09,10.15-14.36,22.55C360.25,109,368.24,100,367.6,93.71Z"/><path class="cls-1" d="M535.59,71.1a1.82,1.82,0,0,0-1.29-1.67,1,1,0,0,0-1.5.75l0,5.62,2.93,1.28Z"/><path class="cls-1" d="M525.82,65.77a1,1,0,0,0-1.52.72l-.09,5.62,2.9,1.34,0-6A1.85,1.85,0,0,0,525.82,65.77Z"/><path class="cls-1" d="M525.68,101c0,3.74,2.43,7.17,5.31,7.45s4.71-2.51,4.46-6c-.24-3.34-2.41-6.31-4.94-6.79S525.68,97.48,525.68,101Z"/><path class="cls-1" d="M513,71.81s.09-4.5.09-4.86-.17-1.07-1-.67S511,68.15,511,68.15c1.11-.67,1.11.32,1.11.32l0,4.06Z"/><path class="cls-1" d="M504.86,102.33c-.12,3.25,1.23,5.94,3,6s3.33-2.52,3.45-5.77-1.23-5.94-3-6S505,99.08,504.86,102.33Z"/><path class="cls-1" d="M496.18,175.16c-18.63-10.23-33.22-5.9-47.44-4.15-15,1.85-28.17,4-40.49,1.65-11.52-2.19-26.59-13.57-27.82-26.72a25.71,25.71,0,0,1,9.13-22.76c2.86-3,7-5.32,10.08-5a3.28,3.28,0,0,1,3.17,2.82c1.35,6.12,5,10.7,8.28,11.13a2.61,2.61,0,0,0,3-2.88c-1.53-11.62-18.43-16.2-19.95-28.54C392.52,87.22,410.41,82.66,421.51,85c12.59,2.65,20.53,11.35,20.7,17.45.13,4.53-8.48,9.76-12.32,9-1.68-.32-2-1.44-2.58-4-.86-3.79-2.95-8.42-6.52-9.06-2.18-.39-3.5,1-3.39,3.28.43,9,18.15,15.31,18.56,28.09.45,13.9-14.76,17.81-25.77,16.16-6.85-1-12-8.69-16.53-6.54-3.17,1.5-.63,11,10.34,15.13,16.17,6,42.18-6.93,57.25-30.73-.88-2.24-.25-3.49,1.24-3.86s16.57-3.36,25.8,3c1.45,1-.25,1.74-.25,1.74s2.43,11.9,9.33,20.08l1.91-49L498.11,94l.78-2.74-.2-1.76-.58-2.35-1.18-2.35L499.28,83l.78-14.49L498.11,66l6.46-5.29,15.27-20.17,19.58,19.58,1.76,1,1.57,1.76L541,65.59l.2,14.69,1.76,1.57.59,2.74-2,2.74.39,2.93-.39,2,1.09,42.61c11.45-23.73,25.71-67.5-9.1-91.72C468.85,3.92,362.29,0,303.83,0s-164,3.92-228.75,43.11C25.7,77.47,51,133.6,71.56,160.74a317.89,317.89,0,0,0,31.63,31,8.7,8.7,0,0,0,6.51-1.65c23.31-17.2,11.16-92.21,3-118.8-.71-2.09-2.81-3.06-4.07-2.29-13,8-13,36.79-8.15,52.21,4.56,14.35,9.71,15.87,10.54,18.4a3.11,3.11,0,0,1-1.6,3.53c-12.55,5.5-27.43-6-32.28-18.63-10-26.28-1.65-64,26.14-75.73,28-11.8,47,19.84,53.38,42.69a515.78,515.78,0,0,1,13.48,59.76c4.3-41.55,11-82.8,17.06-124.09.43-3,1-4.72,2.11-4.86,11.47-1.36,27.13,10.94,29.56,22.1C226,77.11,213.5,120,221,157.24c2.38,11.85,5.79,13.58,6.26,15.94a3.56,3.56,0,0,1-2.56,4.5c-6,2-26-6-28.71-19.44-5-25.12-3.33-53.55-3.11-79.93-8.84,34.54-13.06,70.75-16.5,106.28-.32,3.82-1.84,6-2.83,6.45-6.1,2.82-20.37.47-22.73-9.17-6.28-25.7-8.69-54.07-16.64-80.13a76.64,76.64,0,0,0-4.61-11.87c3.76,27.39,19,99.46,1.19,122,11.44,6.74,23.15,11.38,33.73,11.38,38.55,0,110.86-49.74,145.11-49.74s94.65,49.74,133.2,49.74c16.77,0,36.13-13.63,52.66-29ZM477,112.67a1.22,1.22,0,0,1,2.42.33l-.44,3.26a1.22,1.22,0,1,1-2.42-.32Zm-82.65-55c-.37-3.7-2.46-5.62-2.94-10-.67-6.22,2.31-10.52,8.14-9.55,6.36,1,9.78,5.77,10.43,12.74,1.39,14.75-13.09,27.69-16.5,27.26a3.18,3.18,0,0,1-2.82-3C390.33,71.54,395.43,68,394.38,57.7ZM249.23,158.28c.47,3.12.46,5.22-1.95,5.86-7.07,1.89-17.56,2-18.81-5.52-3.65-22,6.13-45.77,2-68.55-.49-2.21.63-4.07,3.72-4.7,9.75-2,18.21,7.16,19,12.95C255.87,117.24,246.24,138.66,249.23,158.28Zm-1-84.42c-5.78,1-12-3.15-13.76-11.14-2.59-11.54,1.49-23.43,9.86-24.58,6.14-.84,11.88,3.74,13.57,11.9C260.27,61.27,255.85,72.61,248.26,73.86Zm63.87,53.6c3.51-.31,4.14-1.61,5.74-1.73s2.35.66,2.58,2.52c.85,6.78-7.93,23.42-18.77,24.92-8.52,1.18-14.76-23.83-17.76-23.38-1.89.29-3.07,16.25-2.48,22.14.31,3.16-.11,4.52-2.26,4.93-7.2,1.37-17.91.74-18.81-6.56-4.65-37.94,14.23-80.13,9.89-120.21-.45-2.21.79-3.89,4.09-4.12,7.3-.52,19.36,9.27,20,15,2.2,19.78-8.58,45.39-8.13,63.65a.75.75,0,0,0,.79.77c6.3-.75,13.85-14.93,14.22-26.15.19-2,1.22-2.88,2.89-3,6.17-.36,19.25.61,19.42,6.43.41,14.2-17.5,29.56-30.91,35.38C292.63,118.07,300.51,128.5,312.13,127.46Zm35.38,22.16c-10.42.07-20.31-7.36-22.32-22.11-3.14-23.16,14-52.39,38.73-51.1,12.87.68,19.33,10,19.58,17.47.55,16.2-18.26,26.61-32.41,30.32,1.4,4.24,4.2,6.62,8.86,6.66,10.92.1,14.37-8.75,16.81-8.63,1.3.07,3,2,2.87,3.52C378.71,138.24,361.49,149.54,347.51,149.62Z"/><path class="cls-1" d="M509.8,74.31s.09-4.51.09-4.86-.18-1.07-1-.67-1.07,1.87-1.07,1.87c1.11-.67,1.11.31,1.11.31l0,4.07Z"/><path class="cls-1" d="M505.83,71.1c-.85.4-1.08,1.87-1.08,1.87,1.12-.67,1.12.32,1.12.32l0,4.06.93-.72s.09-4.5.09-4.86S506.67,70.7,505.83,71.1Z"/><path class="cls-1" d="M396.33,229.8c-4.13-6.82-45.74-31-53-31.3-7.49-.32-8.85,2.85-15.66,4.44s-32.36,2.22-39.86-4.76,13.65-8.59,11.15-13.34c-4-7.62-46.91,19.68-56.79,26-7.63,4.9-19.32,14-23.31,18.93Z"/></g></g></svg>