<svg xmlns="http://www.w3.org/2000/svg" viewBox="0 0 682.37 300.6"><defs><style>.cls-1{fill:#fff;}.cls-2{fill:#008d38;}</style></defs><g id="Layer_2" data-name="Layer 2"><g id="Layer_4" data-name="Layer 4"><path class="cls-1" d="M37.19,279.52a24.21,24.21,0,0,1-1.39,8.22,16.85,16.85,0,0,1-4.21,6.55,19.4,19.4,0,0,1-7.44,4.51,31.07,31.07,0,0,1-9.89,1.44c-2.78,0-5.38-.11-7.82-.34a49.35,49.35,0,0,1-6.44-1v-13.6H1.43c1.26.54,2.58,1,4,1.51a17.1,17.1,0,0,0,5.31.69,13.19,13.19,0,0,0,6.41-1.26,7,7,0,0,0,3.18-3.51,14,14,0,0,0,1.07-5.11q.11-2.91.1-6.47V244.29H7.11V232.12H37.19Z"/><path class="cls-1" d="M74.67,300.6q-12.63,0-19.42-6.53T48.46,275V232.12H64.19V274q0,7,2.47,10.4c1.64,2.28,4.31,3.43,8,3.43s6.27-1.1,8-3.29,2.55-5.71,2.55-10.54V232.12h15.73v42.8q0,12.39-6.63,19T74.67,300.6Z"/><path class="cls-1" d="M166.67,299.2H151.53l-24.15-46.76V299.2H113V232.12H132.3l20,38.43V232.12h14.39Z"/><path class="cls-1" d="M234.27,299.2h-19L198.18,272l-3.07,4.59V299.2H179.37V232.12h15.74V261.9l20-29.78h18.21L211,263.25Z"/><path class="cls-1" d="M322.53,299.2H303.34l-17.45-24.59h-5.64V299.2H264.6V232.12h25.2a52.21,52.21,0,0,1,9.08.7,18.75,18.75,0,0,1,7.16,2.91,17,17,0,0,1,5.34,5.83,18.27,18.27,0,0,1,2,9q0,7.69-3.24,12.5a23.3,23.3,0,0,1-8.67,7.64ZM297.2,252.67a9.73,9.73,0,0,0-.9-4.35,6.15,6.15,0,0,0-3-2.82,10.28,10.28,0,0,0-3.28-.85q-1.81-.18-4.5-.18h-5.26v18.06h4.5a30.44,30.44,0,0,0,5.57-.43,8.3,8.3,0,0,0,6.15-4.84A12,12,0,0,0,297.2,252.67Z"/><path class="cls-1" d="M327.15,299.2V232.12h42.36v12.8H342.8v11.76h24.61v12.79H342.8v16.94h26.71V299.2Z"/><path class="cls-1" d="M444.14,299.2H428.49V254.74l-11.4,28.7H406.37L395,254.74V299.2H380.16V232.12h18.13l13.88,33.12L426,232.12h18.13Z"/><path class="cls-1" d="M514.14,265.69q0,16.26-8.12,25.58t-22.25,9.33q-14.17,0-22.26-9.44t-8.07-25.47q0-16.19,8.07-25.57t22.26-9.39q14.13,0,22.25,9.34T514.14,265.69Zm-16.24-.05a39.06,39.06,0,0,0-1.15-10.2,21.88,21.88,0,0,0-3.1-6.92,12.09,12.09,0,0,0-4.56-3.94,12.7,12.7,0,0,0-10.54-.09,12.89,12.89,0,0,0-4.54,3.94,21.14,21.14,0,0,0-3.14,6.94,39.36,39.36,0,0,0-1.19,10.32,38.74,38.74,0,0,0,1.13,10.24,21.69,21.69,0,0,0,3.11,6.83,12.06,12.06,0,0,0,4.59,4,12.52,12.52,0,0,0,5.3,1.19,11.89,11.89,0,0,0,9.89-5.27,22.9,22.9,0,0,0,3.11-6.83A38.74,38.74,0,0,0,497.9,265.64Z"/><path class="cls-1" d="M575.77,232.12,554.23,299.2H537.82l-21.53-67.08h16.32l13.63,45.46,13.63-45.46Z"/><path class="cls-1" d="M574.84,299.2,596,232.12h17.17l21.15,67.08H618.13l-3.91-13.69H594.53l-3.91,13.69Zm35.93-25.86-6.4-22.12L598,273.34Z"/><path class="cls-1" d="M682.37,299.2H640.55V232.12h15.73v54.29h26.09Z"/><path class="cls-2" d="M452.77,219.21c-22.53-5.7-65.78-30.8-72.93-32.39-10.31-2.29-12.85,5.65-18.43,8-6.58,2.78-25.58,3-32.07-3.05s11.83-7.45,9.66-11.56c-3.49-6.61-44.39,11.21-58.17,18.1-7,3.52-18.76,9.83-49,21.91Z"/><path class="cls-2" d="M548.53,67.47a2.55,2.55,0,0,0-1.47-2.31,1.2,1.2,0,0,0-1.78,1l-.11,7.68,3.41,1.82Z"/><path class="cls-2" d="M541.2,103.86c0,4.76,3.1,9.11,6.78,9.47s6-3.19,5.71-7.66c-.31-4.26-3.08-8-6.32-8.64S541.2,99.35,541.2,103.86Z"/><path class="cls-2" d="M553.52,69.93A2.53,2.53,0,0,0,552,67.65a1.21,1.21,0,0,0-1.76,1l0,7.68,3.45,1.74Z"/><path class="cls-2" d="M517.87,105.23c-.25,4.24,1.31,7.8,3.49,7.94s4.15-3.18,4.41-7.42-1.3-7.8-3.48-7.94S518.13,101,517.87,105.23Z"/><path class="cls-2" d="M523.19,74.31s.1-6.15.1-6.64-.21-1.46-1.21-.91-1.26,2.56-1.26,2.56c1.32-.92,1.32.42,1.32.42l-.06,5.55Z"/><path class="cls-2" d="M542,62.66a1.2,1.2,0,0,0-1.78,1l-.1,7.68,3.41,1.83L543.49,65A2.53,2.53,0,0,0,542,62.66Z"/><path class="cls-2" d="M518.52,69.93c-1,.55-1.26,2.56-1.26,2.56,1.31-.92,1.31.42,1.31.42l-.05,5.55,1.1-1s.1-6.15.1-6.64S519.51,69.38,518.52,69.93Z"/><path class="cls-2" d="M526.91,70.9s.11-6.15.11-6.64-.21-1.46-1.21-.91-1.26,2.56-1.26,2.56c1.31-.92,1.31.42,1.31.42l-.05,5.55Z"/><path class="cls-2" d="M409.85,86.28c-5.33-.29-13.07,10.37-14.34,23C405.7,105.62,413.68,96.42,413,90,412.79,87.48,411.52,86.37,409.85,86.28Z"/><path class="cls-2" d="M562.62,41.53C500.27,3.78,397.6,0,341.28,0s-158,3.78-220.38,41.53c-47.58,33.11-23.2,87.19-3.39,113.33a304.08,304.08,0,0,0,36.26,34.7,9.22,9.22,0,0,0,1.76-1c23.28-17.58,11.15-94.24,3-121.42-.71-2.14-2.8-3.13-4.06-2.33-13,8.16-13,37.59-8.14,53.35,4.55,14.67,9.69,16.22,10.52,18.81a3.18,3.18,0,0,1-1.59,3.6c-12.53,5.62-27.39-6.08-32.23-19-10-26.85-1.65-65.41,26.09-77.39C177,32,196,64.38,202.39,87.73a539.21,539.21,0,0,1,13.47,61.07c4.28-42.46,11-84.62,17-126.82.43-3.09,1-4.82,2.1-5,11.46-1.4,27.09,11.18,29.52,22.58,7.11,33.41-5.33,77.23,2.14,115.3,2.37,12.11,5.78,13.88,6.24,16.29.43,2.2-.35,3.85-2.55,4.6-6,2.05-26-6.08-28.67-19.87-5-25.67-3.32-54.72-3.11-81.69-8.82,35.31-13,72.31-16.47,108.62-.32,3.91-1.84,6.12-2.83,6.59-6.09,2.88-20.33.48-22.68-9.36-6.28-26.27-8.68-55.27-16.62-81.9a79.72,79.72,0,0,0-4.61-12.13c3.56,26.52,17.44,94,3.73,120.61,9.55,5.08,19.15,8.4,27.94,8.4,37.14,0,106.81-47.92,139.81-47.92S438,215.06,475.15,215.06c10.25,0,21.51-5.3,32.44-13l4-103-1.31-2,.87-3.07-.22-2-.65-2.63L509,86.79l2.63-2,.88-16.23-2.19-2.85,7.24-5.93,17.11-22.59,21.94,21.93,2,1.1,1.76,2-2,3.07.22,16.45,2,1.76.66,3.07L559,89.64l.44,3.29-.44,2.2,1.37,53.53c1.46-1.9,2.25-3,2.25-3S610.19,74.64,562.62,41.53ZM439.78,53.18c-.38-3.79-2.46-5.75-2.94-10.2-.67-6.35,2.31-10.74,8.13-9.76,6.35,1.08,9.76,5.9,10.42,13,1.38,15.08-13.08,28.3-16.48,27.86a3.21,3.21,0,0,1-2.82-3C435.74,67.32,440.83,63.69,439.78,53.18ZM294.85,156c.47,3.19.46,5.33-1.94,6-7.07,1.93-17.54,2.07-18.79-5.64-3.64-22.45,6.13-46.77,2-70.06-.49-2.25.63-4.16,3.71-4.8,9.74-2,18.18,7.32,19,13.23C301.48,114,291.87,135.91,294.85,156Zm-1-86.27c-5.77,1-11.95-3.22-13.74-11.38-2.58-11.8,1.49-24,9.85-25.12,6.13-.87,11.86,3.82,13.55,12.15C305.87,56.83,301.46,68.41,293.88,69.69Zm63.77,54.78c3.5-.32,4.14-1.65,5.73-1.77s2.35.68,2.58,2.57c.85,6.94-7.92,23.94-18.74,25.47-8.51,1.2-14.74-24.35-17.73-23.89-1.89.29-3.07,16.6-2.48,22.63.31,3.23-.11,4.62-2.25,5-7.19,1.4-17.89.76-18.78-6.7C301.33,109,320.18,65.92,315.85,25c-.45-2.26.78-4,4.08-4.21,7.29-.53,19.33,9.47,20,15.31,2.2,20.22-8.56,46.4-8.11,65.06a.74.74,0,0,0,.78.78c6.29-.77,13.83-15.25,14.2-26.72.19-2,1.22-2.94,2.88-3,6.17-.36,19.23.62,19.4,6.57.41,14.51-17.47,30.22-30.86,36.16C338.19,114.87,346.05,125.53,357.65,124.47Zm47.75,3.47c10.9.11,14.35-9,16.79-8.81,1.29.07,3,2.05,2.86,3.59-.92,12.76-18.11,24.31-32.07,24.4-10.4.07-20.28-7.53-22.28-22.6-3.14-23.67,14-53.54,38.67-52.22,12.85.69,19.3,10.26,19.55,17.85.54,16.56-18.24,27.2-32.36,31C398,125.47,400.74,127.9,405.4,127.94Zm71.44-17.34c-1.79-.35-2.14-1.57-2.74-4.3-.92-4.13-3.14-9.17-6.94-9.86-2.31-.43-3.71,1.06-3.59,3.56.45,9.83,20.33,17.29,21.08,31.18.82,15.21-6.79,22.18-28.84,17.84a58.31,58.31,0,0,1-17.49-6.32c-4.64-2.68-8.16-6.45-7.43-12.65a12.24,12.24,0,0,1,3.08-6.71c3-3.27,7.48-5.79,10.72-5.41a3.51,3.51,0,0,1,3.36,3.08c1.44,6.65,5.29,11.63,8.8,12.1a2.8,2.8,0,0,0,3.24-3.13c-1.63-12.64-19.6-17.63-21.21-31-1.77-14.71,17.26-19.67,29.05-17.13,13.39,2.89,21.82,12.35,22,19C490.07,105.71,480.92,111.4,476.84,110.6Z"/></g></g></svg>